<?xml version="1.0" encoding="utf-8"?>
<!-- Generator: Adobe Illustrator 22.0.0, SVG Export Plug-In . SVG Version: 6.00 Build 0)  -->
<svg version="1.1" id="_1_white" xmlns="http://www.w3.org/2000/svg" xmlns:xlink="http://www.w3.org/1999/xlink" x="0px" y="0px"
	 viewBox="0 0 257 178" style="enable-background:new 0 0 257 178;" xml:space="preserve">
<style type="text/css">
	.st0{fill:#FFFFFF;}
</style>
<path id="pixi_copy_4" class="st0" d="M59,54.6c-5.2,0-10.3,1.1-15,3.4c-4.5,2.2-8.6,5.3-11.9,9l-1.2-10.9H18.2v96.3h14.5V112
	c2.7,3.5,6.2,6.3,10.3,8.2c4.2,2,8.7,3,13.4,3c6.2,0.1,12.3-1.4,17.7-4.2c5.2-2.7,9.5-6.8,12.4-11.9c3.1-5.4,4.6-11.6,4.5-17.8
	c0.1-6.3-1.3-12.5-4.2-18.1c-2.6-5.1-6.6-9.3-11.5-12.2C70.3,56.1,64.7,54.6,59,54.6L59,54.6L59,54.6z M53.5,111.5
	c-5,0.1-9.9-1.6-13.8-4.7c-3.8-3-6.3-7.4-7.1-12.2V83.8c1.1-4.9,3.8-9.2,7.7-12.3c4-3.1,9-4.7,14.1-4.6c7.8-0.1,15.1,4.2,18.9,11
	c1.9,3.5,2.9,7.5,2.9,11.5c0,4-1,7.9-3.1,11.3c-2,3.3-4.9,6.1-8.3,7.9C61.3,110.5,57.5,111.5,53.5,111.5L53.5,111.5L53.5,111.5z
	 M110.4,57.3v64.3h14.5V57.3L110.4,57.3L110.4,57.3z M207,121.6l-24.9-33.1l22.4-31.2h-14.6l-14.5,22.4l-17-22.4h-18l24.4,32
	l-23.6,32.3H156l16.2-22.7l17.3,22.7L207,121.6L207,121.6z M222.6,57.3v64.3h14.5V57.3H222.6L222.6,57.3z"/>
<image style="overflow:visible;enable-background:new    ;" width="50" height="49" id="Shape_4_copy" xlink:href="BC80849C.png"  transform="matrix(1 0 0 1 202 0)">
</image>
</svg>
