<?xml version="1.0" encoding="utf-8"?>
<!-- Generator: Adobe Illustrator 22.0.0, SVG Export Plug-In . SVG Version: 6.00 Build 0)  -->
<svg version="1.1" id="_1" xmlns="http://www.w3.org/2000/svg" xmlns:xlink="http://www.w3.org/1999/xlink" x="0px" y="0px"
	 viewBox="0 0 257 178" style="enable-background:new 0 0 257 178;" xml:space="preserve">
<style type="text/css">
	.st0{fill:#282828;}
</style>
<path id="pixi_copy" class="st0" d="M58.3,44c-5.1-0.1-10.1,1.1-14.6,3.6c-4.2,2.4-7.5,5.9-9.6,10.2v-12H18.9V146h15.2v-39.6
	c2.1,4.3,5.4,7.8,9.6,10.1c4.5,2.4,9.5,3.6,14.6,3.5c6,0.1,11.9-1.5,17.1-4.7c5-3.2,9-7.8,11.5-13.2c2.8-6.2,4.2-13,4.1-19.8
	c0.1-6.9-1.3-13.8-4.1-20.1c-2.5-5.5-6.5-10.2-11.6-13.5C70.1,45.6,64.2,43.9,58.3,44L58.3,44L58.3,44z M54.7,108.1
	c-6.6,0-11.7-2.2-15.2-6.8c-3.6-4.5-5.3-10.9-5.3-19.2c0-8.3,1.8-14.7,5.3-19.2s8.6-6.8,15.2-6.8c6.5,0,11.6,2.3,15.2,6.9
	c3.7,4.6,5.5,11,5.5,19.4c0,8.2-1.8,14.5-5.4,19C66.4,105.8,61.3,108,54.7,108.1L54.7,108.1L54.7,108.1z M122.9,119V45.8h-15.2V119
	H122.9z M210.6,45.8h-18.2l-19.5,24.8l-19.4-24.8h-18.3l29,35.5L133.5,119h18.2l21.2-26.7l21.3,26.7h18.2l-30.6-37.7L210.6,45.8z
	 M238.1,119V45.8h-15.2V119H238.1z"/>
</svg>
